<?xml version="1.0" encoding="UTF-8"?>
<svg width="1024" height="1024" viewBox="0 0 1024 1024" fill="none" xmlns="http://www.w3.org/2000/svg">
  <defs>
    <linearGradient id="shieldStrokeGradient" x1="512" y1="140" x2="512" y2="900" gradientUnits="userSpaceOnUse">
      <stop offset="0%" stop-color="#5AC8FA"/>
      <stop offset="50%" stop-color="#007AFF"/>
      <stop offset="100%" stop-color="#0055D4"/>
    </linearGradient>
  </defs>
  <path
    d="M512 160
       C400 160 310 195 270 240
       C240 274 230 310 230 360
       L230 500
       C230 600 270 690 340 760
       C390 810 450 850 512 890
       C574 850 634 810 684 760
       C754 690 794 600 794 500
       L794 360
       C794 310 784 274 754 240
       C714 195 624 160 512 160Z"
    fill="none"
    stroke="url(#shieldStrokeGradient)"
    stroke-width="48"
    stroke-linejoin="round"
  />
</svg>
